<?xml version="1.0" standalone="no"?>
<!DOCTYPE svg PUBLIC "-//W3C//DTD SVG 20010904//EN"
 "http://www.w3.org/TR/2001/REC-SVG-20010904/DTD/svg10.dtd">
<svg version="1.0" xmlns="http://www.w3.org/2000/svg"
 width="748.000000pt" height="748.000000pt" viewBox="0 0 748.000000 748.000000"
 preserveAspectRatio="xMidYMid meet">
<metadata>
Created by potrace 1.14, written by Peter Selinger 2001-2017
</metadata>
<g transform="translate(0.000000,748.000000) scale(0.100000,-0.100000)"
fill="#000000" stroke="none">
<path d="M510 5340 c-25 -4 -64 -16 -87 -28 -54 -28 -153 -121 -153 -144 0 -9
-10 -27 -22 -38 -20 -19 -22 -30 -22 -130 -1 -99 1 -111 22 -133 12 -13 22
-30 22 -39 0 -20 116 -123 156 -138 66 -26 140 -40 202 -39 103 2 1253 1 1287
-1 37 -2 95 -2 155 0 59 2 74 -2 110 -28 40 -30 39 -62 -2 -96 -24 -20 -43
-26 -77 -26 -25 0 -421 0 -878 0 l-833 0 -40 -37 c-38 -35 -40 -40 -40 -94 0
-52 4 -61 34 -93 33 -35 35 -36 112 -37 44 0 459 0 924 0 741 0 876 2 888 11
1 2 5 3 10 4 32 8 82 39 109 67 56 58 83 92 84 103 2 30 9 50 20 57 7 4 14 36
16 79 2 63 -1 80 -28 136 -16 36 -39 74 -49 84 -11 11 -20 24 -20 29 0 12
-102 78 -152 98 -39 15 -120 17 -848 20 -443 1 -816 5 -828 8 -30 7 -57 34
-64 61 -7 27 -2 35 43 62 l36 22 876 3 875 2 27 25 c61 57 64 135 7 195 l-34
35 -836 1 c-460 0 -864 1 -897 2 -33 1 -80 0 -105 -3z"/>
<path d="M3035 5339 c-57 -6 -155 -42 -155 -57 0 -4 -13 -13 -28 -19 -57 -26
-191 -183 -192 -225 0 -10 -5 -18 -11 -18 -5 0 -8 -4 -4 -9 3 -5 1 -12 -4 -16
-6 -3 -13 -27 -16 -53 -4 -26 -14 -71 -22 -100 -13 -43 -14 -61 -5 -85 6 -18
16 -63 23 -102 15 -91 72 -199 135 -256 26 -24 57 -54 68 -66 11 -13 25 -23
32 -23 7 0 14 -4 16 -8 2 -4 30 -21 62 -36 l59 -29 741 0 742 0 50 23 c27 13
56 30 66 38 9 7 23 15 31 16 28 4 143 130 181 198 20 37 36 69 36 70 -1 2 4
17 11 33 15 36 22 322 8 331 -5 3 -7 10 -4 15 4 5 2 9 -4 9 -6 0 -17 23 -25
51 -19 64 -95 165 -161 214 -15 11 -37 30 -50 43 -12 12 -30 22 -39 22 -9 0
-34 9 -56 20 -37 19 -63 20 -732 22 -381 2 -720 0 -753 -3z m1345 -273 c18 -9
38 -16 43 -16 17 0 117 -82 111 -91 -3 -5 -1 -9 3 -9 5 0 16 -18 26 -40 23
-53 24 -206 2 -230 -9 -10 -17 -26 -19 -37 -7 -33 -77 -97 -126 -115 -25 -10
-70 -21 -100 -25 -61 -7 -1063 -8 -1150 0 -67 6 -138 31 -162 57 -11 11 -24
20 -31 20 -7 0 -25 22 -41 48 -28 45 -30 52 -30 162 0 114 0 116 32 162 18 26
41 50 52 53 11 3 20 11 20 16 0 10 16 17 101 48 40 15 110 16 641 15 531 -1
599 -3 628 -18z"/>
<path d="M5310 5340 c-78 -5 -92 -9 -163 -49 -42 -25 -79 -53 -83 -63 -3 -10
-9 -18 -14 -18 -4 0 -22 -24 -39 -54 -27 -49 -30 -63 -31 -143 0 -48 1 -95 3
-105 6 -31 42 -93 65 -111 12 -10 22 -23 22 -28 0 -15 20 -32 60 -52 19 -10
42 -21 50 -26 8 -4 39 -16 68 -25 48 -16 124 -17 830 -16 427 1 787 2 800 1
56 -2 95 -57 72 -101 -27 -50 -16 -50 -941 -50 -843 0 -863 -1 -894 -20 -72
-44 -77 -157 -10 -214 l33 -29 924 0 c919 0 923 0 962 21 22 12 43 19 47 17
16 -11 140 127 165 183 34 77 37 172 6 222 -12 19 -22 42 -22 51 0 8 -26 41
-57 73 -59 59 -137 103 -199 111 -19 2 -39 7 -44 10 -4 3 -363 5 -797 5 -767
0 -789 1 -821 20 -24 15 -32 27 -32 47 0 16 4 33 8 39 7 11 49 37 65 40 4 1
399 2 877 3 l871 1 41 39 c39 36 42 42 42 92 1 50 -2 57 -39 92 l-39 37 -91 0
c-49 0 -432 1 -850 3 -418 1 -798 0 -845 -3z"/>
<path d="M2298 3891 c-27 -4 -53 -12 -58 -17 -26 -26 -24 -333 1 -359 11 -11
417 -13 2494 -13 2609 1 2491 0 2519 28 7 7 11 69 11 169 -1 163 -4 177 -45
191 -23 8 -4868 8 -4922 1z"/>
<path d="M248 3875 l-27 -15 0 -174 0 -173 39 -18 c40 -18 87 -17 150 6 19 6
46 16 60 21 38 14 76 51 85 84 4 16 10 36 13 44 8 25 5 73 -6 112 -10 40 -55
84 -106 107 -47 20 -175 24 -208 6z m179 -80 c10 -3 29 -22 41 -42 19 -30 22
-45 18 -78 -4 -23 -15 -48 -25 -57 -10 -9 -20 -21 -22 -27 -3 -7 -30 -13 -64
-14 l-60 -2 2 30 c4 41 4 42 -1 110 -6 88 25 110 111 80z"/>
<path d="M667 3871 l-32 -16 0 -169 c0 -167 0 -169 24 -184 15 -10 50 -17 92
-18 38 -2 73 -5 78 -9 5 -3 12 -1 16 5 3 5 13 10 22 10 9 0 22 8 29 18 16 20
19 56 4 47 -5 -3 -10 -2 -10 4 0 6 -34 11 -77 13 -76 3 -78 4 -81 30 -6 47 12
65 60 63 29 -2 52 4 71 18 26 18 27 21 13 35 -11 11 -33 15 -76 14 -55 -1 -60
1 -66 23 -9 37 1 44 71 43 36 -1 71 4 79 11 18 15 9 48 -18 64 -32 18 -161 17
-199 -2z"/>
<path d="M1150 3870 c-22 -17 -25 -27 -27 -92 -4 -148 0 -248 10 -265 12 -19
80 -34 131 -29 25 3 48 0 52 -5 4 -6 11 -6 20 2 8 6 14 8 14 3 0 -4 7 1 15 12
16 21 20 60 6 68 -4 3 -35 6 -67 7 -32 1 -65 6 -72 12 -10 8 -13 44 -11 143 2
110 0 135 -14 148 -20 20 -26 20 -57 -4z"/>
<path d="M1560 3868 c-10 -13 -19 -27 -19 -31 0 -4 -7 -15 -16 -23 -8 -9 -15
-24 -15 -35 0 -21 -18 -60 -31 -69 -4 -3 -9 -23 -11 -44 -1 -20 -6 -40 -11
-43 -11 -7 -29 -52 -34 -84 -2 -16 3 -32 17 -44 19 -17 21 -17 40 0 11 10 20
14 20 9 1 -15 24 29 27 51 6 40 12 45 57 45 57 0 76 -8 76 -31 0 -11 15 -36
34 -56 30 -33 36 -36 58 -26 23 10 35 43 16 43 -4 0 -7 3 -6 8 4 16 -16 78
-33 102 -10 14 -19 44 -21 67 -1 23 -8 45 -15 47 -7 3 -18 26 -24 52 -20 78
-70 106 -109 62z m61 -130 c11 -11 20 -27 20 -35 5 -56 4 -58 -26 -61 -17 -2
-38 3 -48 11 -16 11 -18 21 -12 60 6 38 11 47 27 47 12 0 29 -10 39 -22z"/>
<path d="M6096 3182 c-84 -46 -121 -81 -241 -227 -28 -33 -54 -65 -60 -71 -5
-6 -21 -26 -35 -44 -37 -49 -80 -103 -95 -120 -37 -40 -52 -59 -79 -95 -16
-22 -34 -45 -41 -50 -12 -10 -85 -99 -135 -165 -22 -30 -48 -60 -94 -112 -9
-10 -27 -40 -41 -66 -20 -39 -24 -54 -16 -73 46 -112 191 -140 272 -52 19 20
46 49 62 64 15 15 27 31 27 36 0 5 18 27 40 48 22 21 40 35 40 31 0 -5 6 -4
13 2 8 6 205 9 566 8 538 -1 554 -2 565 -21 6 -10 18 -26 27 -35 9 -8 43 -49
77 -91 70 -88 106 -105 188 -90 71 14 77 17 106 62 37 57 22 116 -46 184 -9 9
-16 20 -16 24 0 4 -17 25 -37 47 -21 23 -54 61 -73 85 -19 24 -45 54 -57 67
-13 12 -23 27 -23 32 0 4 -4 10 -8 12 -5 2 -44 46 -87 98 -43 52 -89 106 -102
119 -13 13 -23 28 -23 33 0 5 -18 27 -40 49 -22 22 -40 46 -40 53 0 8 -9 16
-20 19 -11 3 -19 10 -18 15 2 5 -12 24 -29 41 -18 17 -33 35 -33 40 0 18 -103
107 -158 137 -57 31 -64 32 -173 32 -104 0 -118 -2 -163 -26z m217 -274 c18
-12 35 -27 39 -33 18 -29 157 -197 211 -256 15 -16 27 -33 27 -38 0 -15 -29
-33 -41 -26 -6 4 -34 7 -63 5 -98 -4 -531 -5 -543 -2 -7 2 -13 9 -13 14 0 8
117 154 205 256 89 103 123 118 178 80z"/>
<path d="M301 3149 c-15 -9 -39 -30 -53 -47 l-26 -31 1 -468 2 -468 24 -31
c44 -60 177 -67 231 -14 9 9 23 36 31 60 14 38 16 105 14 450 -2 223 -6 428
-10 455 -7 47 -11 52 -59 83 -57 36 -107 40 -155 11z"/>
<path d="M871 3143 c-85 -31 -151 -83 -203 -158 l-42 -60 -1 -100 c0 -88 3
-106 25 -150 24 -47 110 -150 110 -132 0 5 12 -1 26 -12 15 -12 32 -21 38 -21
6 -1 29 -9 51 -20 39 -19 70 -19 862 -20 l822 0 15 -21 c18 -26 14 -98 -5
-110 -19 -12 31 -11 -909 -14 -459 -1 -842 -3 -852 -4 -26 -2 -93 -64 -97 -91
-20 -113 26 -170 149 -187 48 -6 1575 -4 1640 2 35 4 72 11 82 16 9 5 31 9 47
9 28 0 141 54 149 70 1 4 20 26 42 51 35 38 67 108 62 132 -1 4 3 7 9 7 5 0 8
4 4 9 -3 5 -1 12 4 15 19 12 -23 179 -56 217 -7 8 -13 18 -13 21 0 3 -12 19
-27 35 -44 45 -153 100 -216 108 -31 4 -404 7 -829 7 l-773 0 -37 24 c-23 15
-38 32 -38 44 0 28 46 70 78 70 15 0 403 2 862 4 798 3 837 4 877 22 27 12 47
30 57 52 9 17 20 32 26 32 17 0 11 47 -11 90 -15 29 -35 48 -70 66 l-49 24
-872 -1 -873 -2 -64 -24z"/>
<path d="M3080 3151 c-19 -11 -48 -33 -65 -51 l-30 -31 -1 -357 c-2 -296 1
-362 13 -387 8 -16 16 -39 19 -50 2 -11 13 -32 24 -47 11 -15 20 -32 20 -37 0
-5 9 -13 20 -16 11 -3 20 -12 20 -19 0 -7 19 -23 43 -36 23 -13 46 -29 50 -37
4 -7 25 -13 47 -13 21 0 49 -4 62 -9 14 -5 56 -12 94 -16 80 -8 1510 -10 1599
-2 80 7 120 30 155 86 32 50 31 80 -1 112 -11 11 -19 23 -19 27 0 5 -15 19
-32 33 l-33 24 -855 1 c-470 0 -865 4 -876 8 -15 4 -23 18 -27 44 -5 30 -11
429 -8 532 3 119 0 142 -25 180 -14 21 -39 43 -55 49 -16 5 -29 14 -29 19 0
16 -75 11 -110 -7z"/>
</g>
</svg>
